<svg xmlns="http://www.w3.org/2000/svg" width="34" height="34" fill="none"><g clip-path="url(#clip0_1_14)"><path d="M11.475 18.898l4.01-4.009-8.77-8.755c-.68-.68-1.856-.496-2.28.383a5.69 5.69 0 001.104 6.46l5.936 5.921zm9.605-2.564c2.168 1.006 5.213.298 7.466-1.955 2.706-2.706 3.23-6.587 1.147-8.67-2.068-2.068-5.95-1.558-8.67 1.148-2.252 2.252-2.96 5.298-1.955 7.465L6.248 27.143a1.41 1.41 0 000 1.998 1.41 1.41 0 001.997 0L17 20.414l8.755 8.755a1.41 1.41 0 001.998 0 1.41 1.41 0 000-1.997l-8.756-8.755 2.083-2.083z" fill="#F2994A"/></g><defs><clipPath id="clip0_1_14"><path fill="#fff" d="M0 0h34v34H0z"/></clipPath></defs></svg>