<svg xmlns="http://www.w3.org/2000/svg" width="23" height="25" fill="none"><g clip-path="url(#clip0_167_15)"><path d="M16.214 12.01h-3.928v3.93a.788.788 0 01-.786.785.788.788 0 01-.786-.786v-3.928H6.786A.788.788 0 016 11.225c0-.432.354-.786.786-.786h3.928V6.511c0-.432.354-.786.786-.786.432 0 .786.354.786.786v3.928h3.928c.432 0 .786.354.786.786a.788.788 0 01-.786.786z" fill="#828282"/></g><defs><clipPath id="clip0_167_15"><path fill="#fff" transform="translate(.094 .133)" d="M0 0h24v24H0z"/></clipPath></defs></svg>