<svg xmlns="http://www.w3.org/2000/svg" width="23" height="25" viewBox="0 0 23 25" fill="none">
  <g clip-path="url(#clip0_167_15)">
    <path d="M16.2143 12.0108H12.2857V15.9394C12.2857 16.3715 11.9321 16.7251 11.5 16.7251C11.0679 16.7251 10.7143 16.3715 10.7143 15.9394V12.0108H6.78571C6.35357 12.0108 6 11.6572 6 11.2251C6 10.7929 6.35357 10.4394 6.78571 10.4394H10.7143V6.51078C10.7143 6.07864 11.0679 5.72507 11.5 5.72507C11.9321 5.72507 12.2857 6.07864 12.2857 6.51078V10.4394H16.2143C16.6464 10.4394 17 10.7929 17 11.2251C17 11.6572 16.6464 12.0108 16.2143 12.0108Z" fill="#828282"/>
  </g>
  <defs>
    <clipPath id="clip0_167_15">
      <rect width="24" height="24" fill="white" transform="translate(0.0942993 0.132538)"/>
    </clipPath>
  </defs>
</svg>